<svg width="121" height="88" viewBox="0 0 121 88" fill="none" xmlns="http://www.w3.org/2000/svg">
<g filter="url(#filter0_d)">
<path d="M59.7037 46.8148C55.2593 46.8148 51.1112 48.5926 47.9507 51.6543C41.4321 58.1728 41.4321 68.642 47.9507 75.1605C51.1112 78.321 55.2593 80 59.7037 80C64.1482 80 68.2963 78.321 71.4568 75.1605C77.8766 68.642 77.8766 58.1728 71.4568 51.6543C68.3951 48.5926 64.1482 46.8148 59.7037 46.8148ZM70.1729 73.8765C67.4074 76.642 63.6544 78.2222 59.8025 78.2222C55.8519 78.2222 52.1976 76.7407 49.4321 73.8765C43.7037 68.1482 43.7037 58.7654 49.4321 53.037C52.1976 50.2716 55.9507 48.6914 59.8025 48.6914C63.7531 48.6914 67.4074 50.2716 70.1729 53.037C75.9013 58.7654 75.9013 68.1482 70.1729 73.8765Z" fill="black"/>
<path d="M54.6666 58.3704C51.9012 61.1358 51.9012 65.679 54.6666 68.4445C56.0493 69.8272 57.9259 70.5185 59.7036 70.5185C61.5802 70.5185 63.358 69.8272 64.7407 68.4445C67.5061 65.679 67.5061 61.1358 64.7407 58.3704C62.074 55.7037 57.432 55.7037 54.6666 58.3704ZM63.4567 67.1605C61.3827 69.2346 58.0246 69.2346 56.0493 67.1605C53.9752 65.0864 53.9752 61.7284 56.0493 59.7531C57.037 58.7655 58.3209 58.1729 59.8024 58.1729C61.1851 58.1729 62.5678 58.7655 63.5555 59.7531C65.5308 61.8272 65.5308 65.1852 63.4567 67.1605Z" fill="black"/>
<path d="M115.111 22.716C100.494 8.09876 81.037 0 60.3951 0C39.7531 0 20.2963 8.09876 5.67901 22.716C4.59259 23.8025 4 25.1852 4 26.7654C4 28.3457 4.59259 29.7284 5.67901 30.8148C7.85185 32.9877 11.5062 32.9877 13.679 30.8148C26.1235 18.1728 42.716 11.358 60.3951 11.358C78.0741 11.358 94.6667 18.2716 107.111 30.716C108.198 31.8025 109.58 32.3951 111.16 32.3951C112.642 32.3951 114.123 31.8025 115.21 30.716C117.284 28.5432 117.383 24.8889 115.111 22.716ZM113.728 29.4321C112.346 30.8148 109.778 30.8148 108.395 29.4321C95.5556 16.5926 78.4691 9.48148 60.2963 9.48148C42.1235 9.48148 25.037 16.5926 12.2963 29.4321C10.8148 30.9136 8.44444 30.9136 6.96296 29.4321C5.48148 27.9506 5.48148 25.5802 6.96296 24.0988C21.1852 9.87654 40.1481 1.97531 60.3951 1.97531C80.5432 1.97531 99.5062 9.87654 113.827 24.0988C115.21 25.4815 115.21 27.9506 113.728 29.4321Z" fill="black"/>
<path d="M60.3951 24.5925C46.2716 24.5925 33.0371 30.1234 23.0618 40.0987C20.8889 42.2715 20.8889 45.9259 23.0618 48.0987C24.1482 49.1851 25.5309 49.7777 27.1111 49.7777C28.5926 49.7777 30.0741 49.1851 31.1605 48.0987C38.963 40.2962 49.4321 35.9506 60.4939 35.9506C71.5556 35.9506 82.0247 40.2962 89.8272 48.0987C90.9136 49.1851 92.2963 49.7777 93.8766 49.7777C95.358 49.7777 96.8395 49.1851 97.926 48.0987C100.099 45.9259 100.099 42.2715 97.926 40.0987C87.7531 30.1234 74.5185 24.5925 60.3951 24.5925ZM96.3457 46.8148C94.8642 48.1975 92.3951 48.1975 91.0124 46.8148C82.8148 38.6172 71.9506 34.074 60.3951 34.074C48.8395 34.074 37.9753 38.6172 29.7778 46.8148C29.0864 47.5061 28.0988 47.9012 27.1111 47.9012C26.1235 47.9012 25.1358 47.5061 24.4445 46.8148C22.963 45.3333 22.963 42.9629 24.4445 41.4814C34.0247 31.9012 46.8642 26.5678 60.4939 26.5678C74.1235 26.5678 86.8642 31.9012 96.5432 41.4814C97.8272 42.9629 97.8272 45.3333 96.3457 46.8148Z" fill="black"/>
</g>
<defs>
<filter id="filter0_d" x="0" y="0" width="120.79" height="88" filterUnits="userSpaceOnUse" color-interpolation-filters="sRGB">
<feFlood flood-opacity="0" result="BackgroundImageFix"/>
<feColorMatrix in="SourceAlpha" type="matrix" values="0 0 0 0 0 0 0 0 0 0 0 0 0 0 0 0 0 0 127 0"/>
<feOffset dy="4"/>
<feGaussianBlur stdDeviation="2"/>
<feColorMatrix type="matrix" values="0 0 0 0 0 0 0 0 0 0 0 0 0 0 0 0 0 0 0.25 0"/>
<feBlend mode="normal" in2="BackgroundImageFix" result="effect1_dropShadow"/>
<feBlend mode="normal" in="SourceGraphic" in2="effect1_dropShadow" result="shape"/>
</filter>
</defs>
</svg>
