<svg width="90" height="88" viewBox="0 0 90 88" fill="none" xmlns="http://www.w3.org/2000/svg">
<g filter="url(#filter0_d)">
<path d="M84.8333 78.4559H38L32.2917 57.7986C37.4583 60.5947 43.2083 62.0136 49 62.0136C56.3333 62.0136 63.7083 59.7183 69.9583 55.1278C70.125 55.0026 70.25 54.7939 70.25 54.5436C70.25 54.3349 70.1667 54.0845 70 53.9593L45.5833 31.6745L49.1667 27.6682C50.0833 28.2942 51.2083 28.6698 52.4167 28.6698C55.5833 28.6698 58.1667 26.0824 58.1667 22.9108C58.1667 19.7392 55.5833 17.1518 52.4167 17.1518C49.25 17.1518 46.6667 19.7392 46.6667 22.9108C46.6667 24.3297 47.2083 25.6234 48.0833 26.6249L44.5 30.6312L19.9167 8.17945C19.75 8.01253 19.5417 7.97079 19.2917 7.97079C19.0833 8.01253 18.875 8.13772 18.75 8.30465C10.5833 21.8675 12.4583 39.1862 23 50.6625L14.2917 78.4977H4.75C4.33333 78.4977 4 78.8315 4 79.2488C4 79.6661 4.33333 80 4.75 80H14.8333H37.4167H84.8333C85.25 80 85.5833 79.6661 85.5833 79.2488C85.5833 78.8315 85.25 78.4559 84.8333 78.4559ZM52.4167 18.6542C54.75 18.6542 56.6667 20.5738 56.6667 22.9108C56.6667 25.2478 54.75 27.1675 52.4167 27.1675C50.0833 27.1675 48.1667 25.2478 48.1667 22.9108C48.1667 20.5738 50.0833 18.6542 52.4167 18.6542ZM35.7917 76.0772L27.625 66.2702L31.7917 61.6797L35.7917 76.0772ZM19.5833 9.93219L68.3333 54.4601C55.4583 63.4742 37.875 62.3892 26.2083 51.7058C14.5 41.0224 11.7917 23.6202 19.5833 9.93219ZM24.2083 51.831C24.5417 52.1648 24.8333 52.4987 25.1667 52.7908C26.8333 54.2932 28.5833 55.6286 30.4583 56.7553L31.3333 59.927L26.6667 65.1017L21.8333 59.301L24.2083 51.831ZM21.3333 61.012L25.6667 66.2285L16.5833 76.2024L21.3333 61.012ZM16.5417 78.4559L26.625 67.397L35.8333 78.4559H16.5417Z" fill="black"/>
<path d="M51.7083 1.46062C57.7916 1.46062 63.5 3.83933 67.75 8.13772C72.0416 12.4361 74.4166 18.1534 74.375 24.2462C74.375 24.6635 74.7083 24.9974 75.125 24.9974C75.5416 24.9974 75.875 24.6635 75.875 24.2462C75.875 17.7778 73.375 11.6849 68.7916 7.09442C64.2083 2.50391 58.125 0 51.6666 0C51.25 0 50.9166 0.333855 50.9166 0.751174C50.9166 1.16849 51.2916 1.46062 51.7083 1.46062Z" fill="black"/>
<path d="M51.7083 9.51489C55.625 9.51489 59.2917 11.059 62.0833 13.8133C64.8333 16.5676 66.375 20.2817 66.375 24.2045C66.375 24.6218 66.7083 24.9557 67.125 24.9557C67.5417 24.9557 67.875 24.6218 67.875 24.2045C67.875 19.8644 66.2083 15.8164 63.1667 12.77C60.125 9.72355 56.0833 8.01254 51.75 8.01254C51.3333 8.01254 51 8.3464 51 8.76372C50.9583 9.18104 51.2916 9.51489 51.7083 9.51489Z" fill="black"/>
</g>
<defs>
<filter id="filter0_d" x="0" y="0" width="89.5833" height="88" filterUnits="userSpaceOnUse" color-interpolation-filters="sRGB">
<feFlood flood-opacity="0" result="BackgroundImageFix"/>
<feColorMatrix in="SourceAlpha" type="matrix" values="0 0 0 0 0 0 0 0 0 0 0 0 0 0 0 0 0 0 127 0"/>
<feOffset dy="4"/>
<feGaussianBlur stdDeviation="2"/>
<feColorMatrix type="matrix" values="0 0 0 0 0 0 0 0 0 0 0 0 0 0 0 0 0 0 0.25 0"/>
<feBlend mode="normal" in2="BackgroundImageFix" result="effect1_dropShadow"/>
<feBlend mode="normal" in="SourceGraphic" in2="effect1_dropShadow" result="shape"/>
</filter>
</defs>
</svg>
