<svg width="49" height="88" viewBox="0 0 49 88" fill="none" xmlns="http://www.w3.org/2000/svg">
<g filter="url(#filter0_d)">
<path d="M31.379 9.68281H17.0217C16.621 9.68281 16.2204 9.74958 15.8197 9.74958V5.47579C15.8197 2.47079 13.3489 0 10.3439 0H9.47579C6.47079 0 4 2.47079 4 5.47579V66.9115C4 74.1235 9.87646 80 17.0885 80H31.379C38.591 80 44.4675 74.1235 44.4675 66.9115V22.7045C44.4007 15.4925 38.5242 9.68281 31.379 9.68281ZM43.1319 66.9115C43.1319 73.389 37.8564 78.6644 31.379 78.6644H17.0217C10.5442 78.6644 5.26878 73.389 5.26878 66.9115V5.47579C5.26878 3.13857 7.13857 1.26878 9.47579 1.26878H10.3439C12.6811 1.26878 14.5509 3.13857 14.5509 5.47579V10.4841C14.5509 10.6845 14.6845 10.818 14.818 10.9516C14.9516 11.0851 15.1519 11.1519 15.3523 11.0851C15.9533 11.0184 16.4875 10.8848 17.0217 10.8848H31.3122C37.7897 10.8848 43.0651 16.1603 43.0651 22.6377V66.9115H43.1319Z" fill="black"/>
<path d="M37.7897 24.9749H10.611C10.2771 24.9749 9.94324 25.2421 9.94324 25.6427V36.3272C9.94324 36.6611 10.2103 36.995 10.611 36.995H37.7897C38.1235 36.995 38.4574 36.7279 38.4574 36.3272V25.6427C38.4574 25.2421 38.1235 24.9749 37.7897 24.9749ZM37.1219 35.6594H11.2788V26.2437H37.1886V35.6594H37.1219Z" fill="black"/>
<path d="M13.8164 40.1336C11.6795 40.1336 10.01 41.8698 10.01 43.9399C10.01 46.0768 11.7462 47.7462 13.8164 47.7462C15.9532 47.7462 17.6227 46.01 17.6227 43.9399C17.6227 41.803 15.8865 40.1336 13.8164 40.1336ZM13.8164 46.4775C12.414 46.4775 11.2788 45.3422 11.2788 43.9399C11.2788 42.5376 12.414 41.4023 13.8164 41.4023C15.2187 41.4023 16.3539 42.5376 16.3539 43.9399C16.3539 45.3422 15.2187 46.4775 13.8164 46.4775Z" fill="black"/>
<path d="M24.1669 40.1336C22.03 40.1336 20.3606 41.8698 20.3606 43.9399C20.3606 46.0768 22.0968 47.7462 24.1669 47.7462C26.2371 47.7462 27.9733 46.01 27.9733 43.9399C28.0401 41.803 26.3038 40.1336 24.1669 40.1336ZM24.1669 46.4775C22.7646 46.4775 21.6294 45.3422 21.6294 43.9399C21.6294 42.5376 22.7646 41.4023 24.1669 41.4023C25.5693 41.4023 26.7045 42.5376 26.7045 43.9399C26.7713 45.3422 25.6361 46.4775 24.1669 46.4775Z" fill="black"/>
<path d="M34.5843 40.1336C32.4474 40.1336 30.778 41.8698 30.778 43.9399C30.778 46.0768 32.5142 47.7462 34.5843 47.7462C36.6544 47.7462 38.3906 46.01 38.3906 43.9399C38.4574 41.803 36.7212 40.1336 34.5843 40.1336ZM34.5843 46.4775C33.182 46.4775 32.0467 45.3422 32.0467 43.9399C32.0467 42.5376 33.182 41.4023 34.5843 41.4023C35.9866 41.4023 37.1219 42.5376 37.1219 43.9399C37.1219 45.3422 35.9866 46.4775 34.5843 46.4775Z" fill="black"/>
<path d="M13.8164 50.6177C11.6795 50.6177 10.01 52.3539 10.01 54.424C10.01 56.4942 11.7462 58.2304 13.8164 58.2304C15.9532 58.2304 17.6227 56.4942 17.6227 54.424C17.6227 52.3539 15.8865 50.6177 13.8164 50.6177ZM13.8164 56.9616C12.414 56.9616 11.2788 55.8264 11.2788 54.424C11.2788 53.0217 12.414 51.8865 13.8164 51.8865C15.2187 51.8865 16.3539 53.0217 16.3539 54.424C16.3539 55.8264 15.2187 56.9616 13.8164 56.9616Z" fill="black"/>
<path d="M24.1669 50.6177C22.03 50.6177 20.3606 52.3539 20.3606 54.424C20.3606 56.4942 22.0968 58.2304 24.1669 58.2304C26.2371 58.2304 27.9733 56.4942 27.9733 54.424C27.9733 52.3539 26.3038 50.6177 24.1669 50.6177ZM24.1669 56.9616C22.7646 56.9616 21.6294 55.8264 21.6294 54.424C21.6294 53.0217 22.7646 51.8865 24.1669 51.8865C25.5693 51.8865 26.7045 53.0217 26.7045 54.424C26.7713 55.8264 25.6361 56.9616 24.1669 56.9616Z" fill="black"/>
<path d="M34.5843 50.6177C32.4474 50.6177 30.778 52.3539 30.778 54.424C30.778 56.4942 32.5142 58.2304 34.5843 58.2304C36.6544 58.2304 38.3906 56.4942 38.3906 54.424C38.3906 52.3539 36.7212 50.6177 34.5843 50.6177ZM34.5843 56.9616C33.182 56.9616 32.0467 55.8264 32.0467 54.424C32.0467 53.0217 33.182 51.8865 34.5843 51.8865C35.9866 51.8865 37.1219 53.0217 37.1219 54.424C37.1219 55.8264 35.9866 56.9616 34.5843 56.9616Z" fill="black"/>
<path d="M13.8164 61.1018C11.6795 61.1018 10.01 62.8381 10.01 64.9082C10.01 66.9783 11.7462 68.7145 13.8164 68.7145C15.9532 68.7145 17.6227 66.9783 17.6227 64.9082C17.6227 62.8381 15.8865 61.1018 13.8164 61.1018ZM13.8164 67.5125C12.414 67.5125 11.2788 66.3773 11.2788 64.975C11.2788 63.5726 12.414 62.4374 13.8164 62.4374C15.2187 62.4374 16.3539 63.5726 16.3539 64.975C16.3539 66.3773 15.2187 67.5125 13.8164 67.5125Z" fill="black"/>
<path d="M24.1669 61.1018C22.03 61.1018 20.3606 62.8381 20.3606 64.9082C20.3606 66.9783 22.0968 68.7145 24.1669 68.7145C26.2371 68.7145 27.9733 66.9783 27.9733 64.9082C27.9733 62.8381 26.3038 61.1018 24.1669 61.1018ZM24.1669 67.5125C22.7646 67.5125 21.6294 66.3773 21.6294 64.975C21.6294 63.5726 22.7646 62.4374 24.1669 62.4374C25.5693 62.4374 26.7045 63.5726 26.7045 64.975C26.7713 66.3773 25.6361 67.5125 24.1669 67.5125Z" fill="black"/>
<path d="M34.5843 61.1018C32.4474 61.1018 30.778 62.8381 30.778 64.9082C30.778 66.9783 32.5142 68.7145 34.5843 68.7145C36.6544 68.7145 38.3906 66.9783 38.3906 64.9082C38.3906 62.8381 36.7212 61.1018 34.5843 61.1018ZM34.5843 67.5125C33.182 67.5125 32.0467 66.3773 32.0467 64.975C32.0467 63.5726 33.182 62.4374 34.5843 62.4374C35.9866 62.4374 37.1219 63.5726 37.1219 64.975C37.1219 66.3773 35.9866 67.5125 34.5843 67.5125Z" fill="black"/>
<path d="M20.7613 16.4942H27.7062C28.0401 16.4942 28.374 16.227 28.374 15.8264C28.374 15.4925 28.1069 15.1586 27.7062 15.1586H20.7613C20.4274 15.1586 20.0935 15.4257 20.0935 15.8264C20.0935 16.227 20.3606 16.4942 20.7613 16.4942Z" fill="black"/>
</g>
<defs>
<filter id="filter0_d" x="0" y="0" width="48.4674" height="88" filterUnits="userSpaceOnUse" color-interpolation-filters="sRGB">
<feFlood flood-opacity="0" result="BackgroundImageFix"/>
<feColorMatrix in="SourceAlpha" type="matrix" values="0 0 0 0 0 0 0 0 0 0 0 0 0 0 0 0 0 0 127 0"/>
<feOffset dy="4"/>
<feGaussianBlur stdDeviation="2"/>
<feColorMatrix type="matrix" values="0 0 0 0 0 0 0 0 0 0 0 0 0 0 0 0 0 0 0.25 0"/>
<feBlend mode="normal" in2="BackgroundImageFix" result="effect1_dropShadow"/>
<feBlend mode="normal" in="SourceGraphic" in2="effect1_dropShadow" result="shape"/>
</filter>
</defs>
</svg>
