<svg width="85" height="88" viewBox="0 0 85 88" fill="none" xmlns="http://www.w3.org/2000/svg">
<g filter="url(#filter0_d)">
<path d="M71 0H13.6667C8.33333 0 4 4.33333 4 9.66667V70.3333C4 75.6667 8.33333 80 13.6667 80H71.0667C76.4 80 80.7333 75.6667 80.7333 70.3333V9.66667C80.6667 4.33333 76.3333 0 71 0ZM79.4 70.2667C79.4 74.8667 75.6667 78.6 71.0667 78.6H13.6667C9.06667 78.6 5.33333 74.8667 5.33333 70.2667V9.6C5.33333 5 9.06667 1.26667 13.6667 1.26667H71.0667C75.6667 1.26667 79.4 5 79.4 9.6V70.2667Z" fill="black"/>
<path d="M23.2667 3.80005H21.4667C15.6667 3.80005 10.9333 8.53338 10.9333 14.3334V65.2667C10.9333 71.0667 15.6667 75.8001 21.4667 75.8001H23.2667C29.0667 75.8001 33.8 71.0667 33.8 65.2667V14.3334C33.8 8.53338 29.0667 3.80005 23.2667 3.80005ZM32.5334 65.2667C32.5334 70.4001 28.4 74.5334 23.2667 74.5334H21.4667C16.3334 74.5334 12.2 70.4001 12.2 65.2667V14.3334C12.2 9.20005 16.3334 5.06672 21.4667 5.06672H23.2667C28.4 5.06672 32.5334 9.20005 32.5334 14.3334V65.2667Z" fill="black"/>
<path d="M40 24.4H74.8V11.0667H40V24.4ZM41.2667 12.3333H73.4667V23.1333H41.2667V12.3333Z" fill="black"/>
<path d="M44.5333 33.1334C42.0667 33.1334 40 35.1334 40 37.6667C40 40.2 42 42.2 44.5333 42.2C47 42.2 49 40.2 49 37.6667C49 35.1334 47 33.1334 44.5333 33.1334ZM44.5333 40.8667C42.7333 40.8667 41.3333 39.4 41.3333 37.6667C41.3333 35.8667 42.8 34.4667 44.5333 34.4667C46.3333 34.4667 47.7333 35.9334 47.7333 37.6667C47.7333 39.4 46.2667 40.8667 44.5333 40.8667Z" fill="black"/>
<path d="M57.4 33.1334C54.9334 33.1334 52.8667 35.1334 52.8667 37.6667C52.8667 40.2 54.8667 42.2 57.4 42.2C59.8667 42.2 61.8667 40.2 61.8667 37.6667C61.8667 35.1334 59.8667 33.1334 57.4 33.1334ZM57.4 40.8667C55.6 40.8667 54.2 39.4 54.2 37.6667C54.2 35.8667 55.6667 34.4667 57.4 34.4667C59.2 34.4667 60.6 35.9334 60.6 37.6667C60.6 39.4 59.2 40.8667 57.4 40.8667Z" fill="black"/>
<path d="M70.2666 33.1334C67.7999 33.1334 65.7333 35.1334 65.7333 37.6667C65.7333 40.2 67.7333 42.2 70.2666 42.2C72.7333 42.2 74.7333 40.2 74.7333 37.6667C74.7333 35.1334 72.7333 33.1334 70.2666 33.1334ZM70.2666 40.8667C68.4666 40.8667 67.0666 39.4 67.0666 37.6667C67.0666 35.8667 68.5333 34.4667 70.2666 34.4667C72.0666 34.4667 73.4666 35.9334 73.4666 37.6667C73.5333 39.4 72.0666 40.8667 70.2666 40.8667Z" fill="black"/>
<path d="M44.5333 45.6667C42.0667 45.6667 40 47.6667 40 50.2C40 52.6667 42 54.7333 44.5333 54.7333C47 54.7333 49 52.7333 49 50.2C49 47.6667 47 45.6667 44.5333 45.6667ZM44.5333 53.4C42.7333 53.4 41.3333 51.9333 41.3333 50.2C41.3333 48.4 42.8 47 44.5333 47C46.3333 47 47.7333 48.4667 47.7333 50.2C47.7333 51.9333 46.2667 53.4 44.5333 53.4Z" fill="black"/>
<path d="M57.4 45.6667C54.9334 45.6667 52.8667 47.6667 52.8667 50.2C52.8667 52.6667 54.8667 54.7333 57.4 54.7333C59.8667 54.7333 61.8667 52.7333 61.8667 50.2C61.8667 47.6667 59.8667 45.6667 57.4 45.6667ZM57.4 53.4C55.6 53.4 54.2 51.9333 54.2 50.2C54.2 48.4 55.6667 47 57.4 47C59.2 47 60.6 48.4667 60.6 50.2C60.6 51.9333 59.2 53.4 57.4 53.4Z" fill="black"/>
<path d="M70.2666 45.6667C67.7999 45.6667 65.7333 47.6667 65.7333 50.2C65.7333 52.6667 67.7333 54.7333 70.2666 54.7333C72.7333 54.7333 74.7333 52.7333 74.7333 50.2C74.7999 47.6667 72.7333 45.6667 70.2666 45.6667ZM70.2666 53.4C68.4666 53.4 67.0666 51.9333 67.0666 50.2C67.0666 48.4 68.5333 47 70.2666 47C72.0666 47 73.4666 48.4667 73.4666 50.2C73.5333 51.9333 72.0666 53.4 70.2666 53.4Z" fill="black"/>
<path d="M44.5333 58.2C42.0667 58.2 40 60.2 40 62.7333C40 65.2667 42 67.2667 44.5333 67.2667C47 67.2667 49 65.2667 49 62.7333C49 60.2 47 58.2 44.5333 58.2ZM44.5333 65.9333C42.7333 65.9333 41.3333 64.4667 41.3333 62.7333C41.3333 60.9333 42.8 59.5333 44.5333 59.5333C46.3333 59.5333 47.7333 61 47.7333 62.7333C47.7333 64.4667 46.2667 65.9333 44.5333 65.9333Z" fill="black"/>
<path d="M57.4 58.2C54.9334 58.2 52.8667 60.2 52.8667 62.7333C52.8667 65.2667 54.8667 67.2667 57.4 67.2667C59.8667 67.2667 61.8667 65.2667 61.8667 62.7333C61.8667 60.2 59.8667 58.2 57.4 58.2ZM57.4 65.9333C55.6 65.9333 54.2 64.4667 54.2 62.7333C54.2 60.9333 55.6667 59.5333 57.4 59.5333C59.2 59.5333 60.6 61 60.6 62.7333C60.6 64.4667 59.2 65.9333 57.4 65.9333Z" fill="black"/>
<path d="M70.2666 58.2C67.7999 58.2 65.7333 60.2 65.7333 62.7333C65.7333 65.2667 67.7333 67.2667 70.2666 67.2667C72.7333 67.2667 74.7333 65.2667 74.7333 62.7333C74.7333 60.2 72.7333 58.2 70.2666 58.2ZM70.2666 65.9333C68.4666 65.9333 67.0666 64.4667 67.0666 62.7333C67.0666 60.9333 68.5333 59.5333 70.2666 59.5333C72.0666 59.5333 73.4666 61 73.4666 62.7333C73.5333 64.4667 72.0666 65.9333 70.2666 65.9333Z" fill="black"/>
</g>
<defs>
<filter id="filter0_d" x="0" y="0" width="84.7333" height="88" filterUnits="userSpaceOnUse" color-interpolation-filters="sRGB">
<feFlood flood-opacity="0" result="BackgroundImageFix"/>
<feColorMatrix in="SourceAlpha" type="matrix" values="0 0 0 0 0 0 0 0 0 0 0 0 0 0 0 0 0 0 127 0"/>
<feOffset dy="4"/>
<feGaussianBlur stdDeviation="2"/>
<feColorMatrix type="matrix" values="0 0 0 0 0 0 0 0 0 0 0 0 0 0 0 0 0 0 0.25 0"/>
<feBlend mode="normal" in2="BackgroundImageFix" result="effect1_dropShadow"/>
<feBlend mode="normal" in="SourceGraphic" in2="effect1_dropShadow" result="shape"/>
</filter>
</defs>
</svg>
