<svg width="94" height="88" viewBox="0 0 94 88" fill="none" xmlns="http://www.w3.org/2000/svg">
<g filter="url(#filter0_d)">
<path d="M29.2748 66.2815C31.2879 64.5666 32.4808 62.1062 32.4808 59.4967C32.4808 54.576 28.4547 50.6244 23.6085 50.6244C18.6877 50.6244 14.7362 54.6505 14.7362 59.4967C14.7362 62.1808 15.9291 64.6412 17.9421 66.2815C14.2888 68.3691 11.9775 72.246 11.9775 76.4958V80H13.3941V76.4213C13.3941 72.3206 15.8545 68.5927 19.5824 67.027L20.8499 66.5051L19.7315 65.7596C17.5693 64.343 16.2273 62.0317 16.2273 59.4222C16.2273 55.3215 19.5824 51.9664 23.683 51.9664C27.7837 51.9664 31.1388 55.3215 31.1388 59.4222C31.1388 61.9571 29.7967 64.343 27.6346 65.7596L26.5162 66.5051L27.7837 67.027C31.5861 68.6673 33.9719 72.3206 33.9719 76.4213V79.9254H35.3885V76.4213C35.2394 72.1715 32.9281 68.2945 29.2748 66.2815Z" fill="black"/>
<path d="M78.7065 55.5452C82.5834 52.6375 84.8202 48.164 84.8202 43.3178C84.8202 34.8928 77.9609 27.959 69.4614 27.959C60.9618 27.959 54.1771 34.8183 54.1771 43.2432C54.1771 48.0895 56.4884 52.5629 60.2908 55.4706C53.5061 58.9003 49.1818 65.9087 49.1818 73.5881V79.9254H50.5984V73.5881C50.5984 66.0578 55.0718 59.1985 62.0056 56.2162L63.2731 55.6943L62.1547 54.9487C58.0541 52.3392 55.5937 48.0149 55.5937 43.1687C55.5937 35.4893 61.8565 29.2265 69.5359 29.2265C77.2153 29.2265 83.4781 35.4893 83.4781 43.1687C83.4781 47.9403 81.0177 52.3392 76.9171 54.9487L75.7987 55.6943L77.0662 56.2162C84 59.1985 88.4735 66.0578 88.4735 73.5881V79.9254H89.8901V73.5881C89.8901 65.9832 85.5657 58.9748 78.7065 55.5452Z" fill="black"/>
<path d="M50.5983 42.6468C50.6729 42.3485 50.5983 42.0503 50.3001 41.9012C50.2255 41.9012 46.6468 39.2171 45.6775 35.0419C49.7782 31.2395 51.9404 26.1696 51.9404 20.7269C51.9404 8.87232 41.5769 0 27.9329 0C14.2889 0 4 8.87232 4 20.7269C4 32.5815 14.3635 41.4539 28.0075 41.4539C32.2572 41.4539 36.2088 40.6337 39.7875 38.9935C40.9059 40.6337 43.5899 43.2432 48.8089 43.2432C49.1817 43.2432 49.5545 43.2432 50.0019 43.1687C50.3001 43.0941 50.5238 42.945 50.5983 42.6468ZM40.6822 37.6514C40.5331 37.4278 40.3094 37.2787 40.0857 37.2787C40.0112 37.2787 39.8621 37.2787 39.7875 37.3532C36.2833 39.068 32.3318 39.9627 28.082 39.9627C15.109 40.0373 5.41659 31.6869 5.41659 20.7269C5.41659 9.69245 15.109 1.41659 28.0075 1.41659C40.9059 1.41659 50.5983 9.69245 50.5983 20.7269C50.5983 25.8714 48.4362 30.7176 44.4846 34.2218C44.3355 34.3709 44.1864 34.6691 44.2609 34.8928C44.8574 38.0242 46.7213 40.4101 48.0634 41.7521C43.6645 41.5284 41.5769 39.1426 40.6822 37.6514Z" fill="black"/>
<path d="M40.3094 11.8546H14.2143C13.8415 11.8546 13.4688 12.1528 13.4688 12.6002C13.4688 12.973 13.767 13.3458 14.2143 13.3458H40.3094C40.6822 13.3458 41.055 13.0475 41.055 12.6002C41.055 12.1528 40.6822 11.8546 40.3094 11.8546Z" fill="black"/>
<path d="M40.3094 20.876H14.2143C13.8415 20.876 13.4688 21.1743 13.4688 21.6216C13.4688 22.069 13.767 22.3672 14.2143 22.3672H40.3094C40.6822 22.3672 41.055 22.069 41.055 21.6216C41.055 21.1743 40.6822 20.876 40.3094 20.876Z" fill="black"/>
<path d="M40.3094 29.8975H14.2143C13.8415 29.8975 13.4688 30.1957 13.4688 30.643C13.4688 31.0904 13.767 31.3886 14.2143 31.3886H40.3094C40.6822 31.3886 41.055 31.0904 41.055 30.643C41.055 30.1957 40.6822 29.8975 40.3094 29.8975Z" fill="black"/>
</g>
<defs>
<filter id="filter0_d" x="0" y="0" width="93.8901" height="88" filterUnits="userSpaceOnUse" color-interpolation-filters="sRGB">
<feFlood flood-opacity="0" result="BackgroundImageFix"/>
<feColorMatrix in="SourceAlpha" type="matrix" values="0 0 0 0 0 0 0 0 0 0 0 0 0 0 0 0 0 0 127 0"/>
<feOffset dy="4"/>
<feGaussianBlur stdDeviation="2"/>
<feColorMatrix type="matrix" values="0 0 0 0 0 0 0 0 0 0 0 0 0 0 0 0 0 0 0.25 0"/>
<feBlend mode="normal" in2="BackgroundImageFix" result="effect1_dropShadow"/>
<feBlend mode="normal" in="SourceGraphic" in2="effect1_dropShadow" result="shape"/>
</filter>
</defs>
</svg>
