<svg width="77" height="88" viewBox="0 0 77 88" fill="none" xmlns="http://www.w3.org/2000/svg">
<g filter="url(#filter0_d)">
<path d="M65.8638 25.5914V13.7634C65.8638 6.16488 59.6989 0 52.1004 0H17.7634C10.1649 0 4 6.16488 4 13.7634V25.5914C4 30.1792 6.22222 34.3369 10.0932 36.9176L6.07885 46.3082C5.93548 46.595 6.07885 46.9534 6.29391 47.0968C6.43728 47.1685 6.58064 47.2401 6.72401 47.2401C6.86738 47.2401 7.01075 47.1685 7.15412 47.0968L16.9749 39.2832H17.0466C17.2616 39.2832 17.4767 39.3548 17.6918 39.3548H52.0287C59.6989 39.2832 65.8638 33.1183 65.8638 25.5914ZM17.2616 37.9212C17.1183 37.9212 16.9749 37.8495 16.8315 37.8495C16.6882 37.8495 16.4731 37.9211 16.3297 37.9928L8.37276 44.3011L11.5269 36.9176C11.6703 36.6308 11.5269 36.2724 11.2401 36.0573C7.51255 33.7634 5.36201 29.8208 5.36201 25.5914V13.7634C5.36201 6.95341 10.8817 1.36201 17.7634 1.36201H52.1004C58.9104 1.36201 64.5018 6.88172 64.5018 13.7634V25.5914C64.5018 32.4014 58.9821 37.9928 52.1004 37.9928H17.7634C17.6201 37.9211 17.405 37.9212 17.2616 37.9212Z" fill="black"/>
<path d="M33.6058 12.9032H55.828C56.1864 12.9032 56.5448 12.6165 56.5448 12.1864C56.5448 11.7563 56.2581 11.4695 55.828 11.4695H33.6058C33.2473 11.4695 32.8889 11.7563 32.8889 12.1864C32.8889 12.6165 33.1757 12.9032 33.6058 12.9032Z" fill="black"/>
<path d="M56.4731 21.2186C56.4731 20.8602 56.1863 20.5018 55.7562 20.5018H33.534C33.1756 20.5018 32.8171 20.7885 32.8171 21.2186C32.8171 21.6488 33.1039 21.9355 33.534 21.9355H55.7562C56.1863 21.9355 56.4731 21.5771 56.4731 21.2186Z" fill="black"/>
<path d="M72.8888 62.9391V53.6201C72.8888 47.5986 68.0143 42.724 61.9928 42.724H35.0394C29.0179 42.724 24.1433 47.5986 24.1433 53.6201V62.9391C24.1433 68.9606 29.0179 73.8351 35.0394 73.8351H61.9928C62.1361 73.8351 62.3512 73.8351 62.4946 73.7634L70.1648 79.8566C70.3082 79.9283 70.4516 80 70.5949 80C70.7383 80 70.8817 79.9283 71.025 79.8566C71.2401 79.6416 71.3835 79.3548 71.2401 79.0681L68.1576 71.828C71.0967 69.8208 72.8888 66.5233 72.8888 62.9391ZM66.939 71.0394C66.6523 71.1828 66.5089 71.6129 66.6523 71.8996L68.8745 77.2043L63.068 72.6165C62.9247 72.5448 62.7813 72.4731 62.6379 72.4731C62.6379 72.4731 62.6379 72.4731 62.5663 72.4731C62.4229 72.4731 62.3512 72.4731 62.2078 72.5448C62.0645 72.5448 61.9928 72.5448 61.8494 72.5448H35.0394C29.8064 72.5448 25.5053 68.2437 25.5053 63.0108V53.6918C25.5053 48.3871 29.7347 44.086 35.0394 44.086H61.9928C67.2258 44.086 71.5268 48.3871 71.5268 53.6201V62.9391C71.5268 66.2366 69.8064 69.2473 66.939 71.0394Z" fill="black"/>
<path d="M49.5196 60.7168H32.1003C31.7418 60.7168 31.3834 61.0036 31.3834 61.4337C31.3834 61.7921 31.6702 62.1505 32.1003 62.1505H49.5196C49.878 62.1505 50.2365 61.8638 50.2365 61.4337C50.2365 61.0036 49.9497 60.7168 49.5196 60.7168Z" fill="black"/>
<path d="M49.5196 51.2545H32.1003C31.7418 51.2545 31.3834 51.5412 31.3834 51.9713C31.3834 52.4014 31.6702 52.6882 32.1003 52.6882H49.5196C49.878 52.6882 50.2365 52.4014 50.2365 51.9713C50.2365 51.5412 49.9497 51.2545 49.5196 51.2545Z" fill="black"/>
<path d="M24.4302 19.2115C25.9355 17.9211 26.7958 16.0573 26.7958 13.9785C26.7958 10.1075 23.6416 7.02509 19.8423 7.02509C15.9714 7.02509 12.8889 10.1792 12.8889 13.9785C12.8889 15.9857 13.7492 17.8495 15.2545 19.2115C12.4588 20.8602 10.7384 23.7993 10.7384 27.0968V29.7491C10.7384 30.1075 11.0251 30.4659 11.4552 30.4659C11.8137 30.4659 12.1721 30.1792 12.1721 29.7491V27.0251C12.1721 23.9426 14.0359 21.1469 16.8316 19.9283C17.0466 19.8566 17.19 19.5699 17.2617 19.3548C17.2617 19.0681 17.19 18.853 16.975 18.7097C15.3262 17.7061 14.3226 15.914 14.3226 13.9785C14.3226 10.8961 16.8316 8.38709 19.914 8.38709C22.9965 8.38709 25.5054 10.8961 25.5054 13.9785C25.5054 15.914 24.5018 17.7061 22.8531 18.7097C22.638 18.853 22.4947 19.0681 22.5664 19.3548C22.5664 19.6416 22.7097 19.8566 22.9965 19.9283C25.8639 21.1469 27.656 23.9426 27.656 27.0251V29.7491C27.656 30.1075 27.9427 30.4659 28.3728 30.4659C28.7312 30.4659 29.0897 30.1792 29.0897 29.7491V27.0251C28.9463 23.7993 27.2259 20.7885 24.4302 19.2115Z" fill="black"/>
<path d="M64.0716 56.0573C64.9318 55.1971 65.3619 54.0502 65.3619 52.8315C65.3619 50.2509 63.2831 48.172 60.7024 48.172C58.1218 48.172 56.0429 50.2509 56.0429 52.8315C56.0429 54.0502 56.5447 55.1971 57.3332 56.0573C55.6845 57.1326 54.6809 58.9964 54.6809 61.0753V62.7957C54.6809 63.1541 54.9676 63.5125 55.3978 63.5125C55.7562 63.5125 56.1146 63.2258 56.1146 62.7957V61.0753C56.1146 59.2115 57.1899 57.5627 58.9103 56.7742C59.1253 56.7025 59.2687 56.4158 59.3404 56.2007C59.3404 55.914 59.2687 55.6989 59.0537 55.5556C58.1218 54.9821 57.4766 53.9068 57.4766 52.7599C57.4766 50.9677 58.982 49.4624 60.7741 49.4624C62.5662 49.4624 64.0716 50.9677 64.0716 52.7599C64.0716 53.9068 63.4981 54.9104 62.4945 55.5556C62.2795 55.6989 62.1361 55.914 62.2078 56.2007C62.2078 56.4875 62.3512 56.7025 62.6379 56.7742C64.3583 57.491 65.4336 59.2115 65.4336 61.0753V62.7957C65.4336 63.1541 65.7203 63.5125 66.1504 63.5125C66.5806 63.5125 66.8673 63.2258 66.8673 62.7957V61.0753C66.7239 58.9964 65.7203 57.1326 64.0716 56.0573Z" fill="black"/>
</g>
<defs>
<filter id="filter0_d" x="0" y="0" width="76.8888" height="88" filterUnits="userSpaceOnUse" color-interpolation-filters="sRGB">
<feFlood flood-opacity="0" result="BackgroundImageFix"/>
<feColorMatrix in="SourceAlpha" type="matrix" values="0 0 0 0 0 0 0 0 0 0 0 0 0 0 0 0 0 0 127 0"/>
<feOffset dy="4"/>
<feGaussianBlur stdDeviation="2"/>
<feColorMatrix type="matrix" values="0 0 0 0 0 0 0 0 0 0 0 0 0 0 0 0 0 0 0.25 0"/>
<feBlend mode="normal" in2="BackgroundImageFix" result="effect1_dropShadow"/>
<feBlend mode="normal" in="SourceGraphic" in2="effect1_dropShadow" result="shape"/>
</filter>
</defs>
</svg>
